<svg id="레이어_1" data-name="레이어 1" xmlns="http://www.w3.org/2000/svg" viewBox="0 0 100 100"><defs><style>.cls-1{fill:#fff;}</style></defs><path class="cls-1" d="M66.82,68.78H58.74V56.62h2.67a1.26,1.26,0,0,0-.77-1.18,22.66,22.66,0,0,0,2.31.37,13.1,13.1,0,0,0,5.88-1.22c1-.41,3.34-1.39,3.34-2.45a.9.9,0,0,0-.27-.66,1,1,0,0,0-1.21-.13,14.87,14.87,0,0,1-5.19,2.28A10.62,10.62,0,0,1,59.62,53a15.83,15.83,0,0,1-9.2-8.74c-.19-.47-.38-1-.54-1.51a15.6,15.6,0,0,1-.66-4.52V31.05c0-.37,0-.76.06-1.22a12.31,12.31,0,0,1,12.3-11.14h9.1A15.69,15.69,0,0,1,86.36,34.36V49.25A18.72,18.72,0,0,1,86,52.82a19.32,19.32,0,0,1-1.65,5A19.53,19.53,0,0,1,66.82,68.78Zm-5.41-2.66h5.41A16.83,16.83,0,0,0,82,56.66a16.38,16.38,0,0,0,1.43-4.34,16.15,16.15,0,0,0,.29-3.07V34.36a13,13,0,0,0-13-13h-9.1a9.65,9.65,0,0,0-9.64,8.72,8.63,8.63,0,0,0,0,1v7.17A12.8,12.8,0,0,0,52.44,42a10,10,0,0,0,.45,1.24,12.83,12.83,0,0,0,3.33,4.69,13,13,0,0,0,4.31,2.58A8.2,8.2,0,0,0,65,51a12.36,12.36,0,0,0,4.24-1.89,3.63,3.63,0,0,1,2-.61,3.58,3.58,0,0,1,2.57,1.08,3.52,3.52,0,0,1,1,2.54c0,2.85-3.25,4.19-5,4.92a15.65,15.65,0,0,1-7.12,1.41c-.5,0-.94-.09-1.32-.15Z"/><path class="cls-1" d="M71.6,83.67H58.74V70.85H71.6ZM61.41,81h7.52v-7.5H61.41Z"/><path class="cls-1" d="M56.66,83.67H43.79V68.78h-17V83.67H13.93V45.39A16.79,16.79,0,0,1,30.7,28.61H47.37l-.13,1.46a9.49,9.49,0,0,0,0,1v7.17A17.21,17.21,0,0,0,48,43.34a17.46,17.46,0,0,0,3.59,6.48A17.64,17.64,0,0,0,56,53.5l.66.39ZM46.46,81H54V55.4a20.44,20.44,0,0,1-9.47-17.18V31.28H30.7A14.13,14.13,0,0,0,16.59,45.39V81h7.54V66.12H46.46Z"/><path class="cls-1" d="M41.73,83.67H28.86V70.85H41.73ZM31.53,81h7.53v-7.5H31.53Z"/></svg>