<svg id="레이어_1" data-name="레이어 1" xmlns="http://www.w3.org/2000/svg" viewBox="0 0 100 100"><defs><style>.cls-1{fill:#fff;}</style></defs><path class="cls-1" d="M81.77,30.87h-2V23.6H54.36A6,6,0,0,0,50,25.48a6,6,0,0,0-4.36-1.88H20.26v7.27h-2a6,6,0,0,0-6,6V74.12a6,6,0,0,0,6,6H81.77a6,6,0,0,0,6-6V36.84A6,6,0,0,0,81.77,30.87ZM23.59,26.94H45.64a2.7,2.7,0,0,1,2.69,2.69h3.34a2.7,2.7,0,0,1,2.69-2.69h22v40h-22A6,6,0,0,0,50,68.82a6,6,0,0,0-4.36-1.88h-22ZM84.4,74.12a2.64,2.64,0,0,1-2.63,2.64H18.23a2.64,2.64,0,0,1-2.63-2.64V36.84a2.63,2.63,0,0,1,2.63-2.63h2V70.28H45.64A2.69,2.69,0,0,1,48.33,73v.54h3.34V73a2.69,2.69,0,0,1,2.69-2.69H79.74V34.21h2a2.63,2.63,0,0,1,2.63,2.63Z"/><path class="cls-1" d="M54.27,61.75l3.38-8,6.44,5.09L66.28,56l-6.43-5.09,7-5.14-21.1-3.72Z"/><rect class="cls-1" x="49.86" y="35.79" width="4.3" height="2" transform="translate(-3.63 67.82) rotate(-64.42)"/><rect class="cls-1" x="45.71" y="34.11" width="2" height="4.3" transform="translate(-5.79 9.05) rotate(-10.43)"/><rect class="cls-1" x="41.12" y="36.78" width="2" height="4.3" transform="translate(-15.12 42.61) rotate(-46.42)"/><rect class="cls-1" x="38.97" y="41.65" width="2" height="4.3" transform="translate(-8.71 77.66) rotate(-82.43)"/><rect class="cls-1" x="38.95" y="48" width="4.3" height="2" transform="translate(-18.37 25.46) rotate(-28.42)"/></svg>