<svg id="레이어_1" data-name="레이어 1" xmlns="http://www.w3.org/2000/svg" viewBox="0 0 100 100"><defs><style>.cls-1{fill:#fff;}</style></defs><path class="cls-1" d="M82.49,28l-30-14.83a5.6,5.6,0,0,0-5,0l-30,14.44a5.69,5.69,0,0,0-3.21,5.1v35.7a5.68,5.68,0,0,0,3.22,5.11l30,14.4a5.64,5.64,0,0,0,2.46.57,5.57,5.57,0,0,0,2.45-.57l30-14.4a5.68,5.68,0,0,0,3.22-5.11V33.07A5.63,5.63,0,0,0,82.49,28ZM50,45.1,37.4,38.87,67.57,24.34l12.61,6.23Zm-1-29a2.3,2.3,0,0,1,1-.23,2.35,2.35,0,0,1,1,.24l12.77,6.31L33.61,37,19.82,30.19ZM19,70.49a2.35,2.35,0,0,1-1.32-2.11V32.85l14.24,7V53.23a1.67,1.67,0,1,0,3.33,0V41.54L48.33,48V84.57Zm62,0L51.67,84.57V48L82.31,33.24V68.38A2.35,2.35,0,0,1,81,70.49Z"/><path class="cls-1" d="M60.63,67.92l13.91-6.68V49.91l-13.91,6.7ZM64,58.7l7.24-3.49v3.94L64,62.62Z"/></svg>