<svg id="레이어_1" data-name="레이어 1" xmlns="http://www.w3.org/2000/svg" viewBox="0 0 100 100"><defs><style>.cls-1{fill:#fff;}</style></defs><path class="cls-1" d="M78.46,75.51a2,2,0,0,1-2,2H38.83a2,2,0,0,1-2-2V15.68a2,2,0,0,1,2-2H76.47a2,2,0,0,1,2,2v3.7H81.8v-3.7a5.33,5.33,0,0,0-5.33-5.32H38.83a5.32,5.32,0,0,0-5.32,5.32V36.19c-1.9-1.38-4.27-2.18-6.62-.85l-.87.49,0,1c0,.21.35,21.24-7.16,32.89l-.27.41V85l-5.34,5.34,2.36,2.36L22,86.4V71.11c6.8-11,7.4-28.27,7.43-33.09h0c1.63,0,3.41,2,4.1,2.85V75.51a5.33,5.33,0,0,0,5.32,5.32H61.18A18.56,18.56,0,0,0,53.48,93l3.32.39c0-.39,1.32-9.62,12.39-12.51h7.28a5.33,5.33,0,0,0,5.33-5.32v-3.7H78.46Z"/><path class="cls-1" d="M85.12,33.54a5.5,5.5,0,0,0-1.76-1.18l1.76-1.76a5.5,5.5,0,0,0-7.78-7.78l-1.63,1.63v-4.3H59.64V36.21H71.5l.11.12a5.5,5.5,0,0,0,1.76,1.18L71.91,39H59.64V55H70.12a5.53,5.53,0,0,0,1.49,2.75h-12V73.84H75.71V70.09a5.47,5.47,0,0,0,3.68-1.6l5.73-5.73a5.5,5.5,0,0,0-1.76-9L85.12,52a5.5,5.5,0,0,0-1.76-9l1.76-1.76A5.5,5.5,0,0,0,85.12,33.54ZM63,32.88V23.49h9.39v4.29l-.76.76A5.5,5.5,0,0,0,70,32.88ZM74,34a2.17,2.17,0,0,1,0-3.07l5.72-5.73a2.19,2.19,0,0,1,1.54-.63,2.17,2.17,0,0,1,1.53,3.7L78.1,32.91a4.54,4.54,0,0,0-.76.63l-.79.78A2.16,2.16,0,0,1,74,34ZM63,42.3h7.09a5.49,5.49,0,0,0,3.3,5.93L71.61,50a5.31,5.31,0,0,0-1.15,1.71H63Zm0,28.2V61.11h8.26a5.51,5.51,0,0,0,.37,7.38,5.65,5.65,0,0,0,.76.63V70.5ZM81.23,56.7a2.17,2.17,0,0,1,1.53,3.7L77,66.13A2.17,2.17,0,0,1,74,63.06l4.66-4.66a5.09,5.09,0,0,0,.76-.63l.79-.79A2.17,2.17,0,0,1,81.23,56.7Zm0-10.72a2.17,2.17,0,0,1,1.53,3.7l-4.67,4.67a4.91,4.91,0,0,0-.75.63l-.79.78A2.16,2.16,0,0,1,74,52.34l4.66-4.66a5.09,5.09,0,0,0,.76-.63l.79-.79A2.2,2.2,0,0,1,81.23,46Zm1.53-7L78.1,43.63a4.54,4.54,0,0,0-.76.63l-.79.78A2.16,2.16,0,0,1,74,41.62L78.63,37a5.78,5.78,0,0,0,.76-.63l.79-.79a2.2,2.2,0,0,1,1-.28A2.17,2.17,0,0,1,82.76,39Z"/><path class="cls-1" d="M56.81,20.15H40.75V36.21H56.81ZM53.47,32.88H44.08V23.49h9.39Z"/><path class="cls-1" d="M56.81,39H40.75V55H56.81ZM53.47,51.69H44.08V42.3h9.39Z"/><path class="cls-1" d="M40.75,73.84H56.81V57.77H40.75Zm3.33-12.73h9.39V70.5H44.08Z"/></svg>