<svg id="레이어_1" data-name="레이어 1" xmlns="http://www.w3.org/2000/svg" viewBox="0 0 100 100"><defs><style>.cls-1{fill:#fff;}</style></defs><path class="cls-1" d="M78.24,29.1H70V18.7A5.67,5.67,0,0,0,64.35,13H34.5a5.68,5.68,0,0,0-5.67,5.67V29.1H20.62A5.67,5.67,0,0,0,15,34.77V62.16a5.67,5.67,0,0,0,5.67,5.67h8.21V80.4a5.68,5.68,0,0,0,5.67,5.67H64.35A5.67,5.67,0,0,0,70,80.4V67.83h8.22a5.68,5.68,0,0,0,5.67-5.67V34.77A5.68,5.68,0,0,0,78.24,29.1ZM32.17,18.7a2.34,2.34,0,0,1,2.33-2.34H64.35a2.33,2.33,0,0,1,2.33,2.34V29.1H32.17Zm32.18,64H34.5a2.34,2.34,0,0,1-2.33-2.34V51.49H66.68V80.4A2.33,2.33,0,0,1,64.35,82.74ZM80.57,62.16a2.33,2.33,0,0,1-2.33,2.33H70v-13h6V48.16H22.88v3.33h5.95v13H20.62a2.33,2.33,0,0,1-2.34-2.33V34.77a2.34,2.34,0,0,1,2.34-2.34H78.24a2.34,2.34,0,0,1,2.33,2.34Z"/><rect class="cls-1" x="39.22" y="59.05" width="20.42" height="3.34"/><rect class="cls-1" x="39.22" y="69.94" width="20.42" height="3.34"/></svg>