<svg id="레이어_1" data-name="레이어 1" xmlns="http://www.w3.org/2000/svg" viewBox="0 0 100 100"><defs><style>.cls-1{fill:#fff;}</style></defs><path class="cls-1" d="M87.27,19.79H12.73a5.67,5.67,0,0,0-5.67,5.67v44a5.67,5.67,0,0,0,5.67,5.67H39.27l-4,15.39H64.73l-4-15.39H87.27a5.67,5.67,0,0,0,5.67-5.67v-44A5.67,5.67,0,0,0,87.27,19.79ZM12.73,23.12H87.27a2.34,2.34,0,0,1,2.34,2.34v3.75H10.39V25.46A2.34,2.34,0,0,1,12.73,23.12ZM60.42,87.21H39.58l3.14-12.06H57.28ZM87.27,71.82H12.73a2.34,2.34,0,0,1-2.34-2.34V32.54H89.61V69.48A2.34,2.34,0,0,1,87.27,71.82Z"/><path class="cls-1" d="M15.31,65.23H43.66V39.13H15.31Zm3.34-22.76H40.33V61.89H18.65Z"/><rect class="cls-1" x="49.23" y="39.13" width="33.79" height="3.34"/><rect class="cls-1" x="49.23" y="61.89" width="33.79" height="3.34"/><rect class="cls-1" x="49.23" y="50.51" width="33.79" height="3.34"/></svg>