<svg id="레이어_1" data-name="레이어 1" xmlns="http://www.w3.org/2000/svg" viewBox="0 0 100 100"><defs><style>.cls-1{fill:#fff;}</style></defs><path class="cls-1" d="M77.8,16.08H22.2a5.68,5.68,0,0,0-5.67,5.67v55.6A5.68,5.68,0,0,0,22.2,83H77.8a5.68,5.68,0,0,0,5.67-5.67V21.75A5.68,5.68,0,0,0,77.8,16.08ZM39.42,29.34l-6.55-9.92H44.66l6.55,9.92Zm15.79,0-6.55-9.92H60.45L67,29.34Zm-33-9.92h6.67l6.55,9.92H19.87V21.75A2.34,2.34,0,0,1,22.2,19.42ZM80.13,77.35a2.33,2.33,0,0,1-2.33,2.33H22.2a2.33,2.33,0,0,1-2.33-2.33V32.68H80.13ZM71,29.34l-6.56-9.92H77.8a2.34,2.34,0,0,1,2.33,2.33v7.59Z"/><path class="cls-1" d="M44.23,65.24l7-4,7-4a2.36,2.36,0,0,0,0-4.09l-7-4-7-4a2.36,2.36,0,0,0-3.54,2v16A2.36,2.36,0,0,0,44.23,65.24Z"/></svg>