<svg id="레이어_1" data-name="레이어 1" xmlns="http://www.w3.org/2000/svg" viewBox="0 0 100 100"><defs><style>.cls-1{fill:#fff;}</style></defs><path class="cls-1" d="M72.31,19.53H60.24V16.86a5.68,5.68,0,0,0-5.67-5.67H45.43a5.68,5.68,0,0,0-5.67,5.67v2.67H27.69A5.67,5.67,0,0,0,22,25.2v59a5.68,5.68,0,0,0,5.67,5.67H72.31A5.68,5.68,0,0,0,78,84.17v-59A5.67,5.67,0,0,0,72.31,19.53ZM43.1,16.86a2.33,2.33,0,0,1,2.33-2.34h9.14a2.33,2.33,0,0,1,2.33,2.34v2.67H43.1ZM74.65,84.17a2.34,2.34,0,0,1-2.34,2.33H27.69a2.34,2.34,0,0,1-2.34-2.33v-59a2.34,2.34,0,0,1,2.34-2.34H72.31a2.34,2.34,0,0,1,2.34,2.34Z"/><path class="cls-1" d="M52.73,30.7H30.13V53.3h22.6ZM49.39,50H33.47V34H49.39Z"/><rect class="cls-1" x="56.35" y="30.7" width="13.76" height="3.34"/><rect class="cls-1" x="56.35" y="49.96" width="13.76" height="3.34"/><rect class="cls-1" x="56.35" y="40.33" width="13.76" height="3.34"/><rect class="cls-1" x="30.15" y="57.24" width="39.96" height="3.34"/><rect class="cls-1" x="30.15" y="77.49" width="39.96" height="3.34"/><rect class="cls-1" x="30.15" y="67.36" width="39.96" height="3.34"/></svg>